<svg xmlns="http://www.w3.org/2000/svg" width="79" height="16" viewBox="0 0 79 16"><path d="M25.2 4.5c-2.2 0-4 1.6-4 4a4 4 0 004 4c2.2 0 4-1.7 4-4s-1.8-4-4-4zm0 6.4c-1.2 0-2.2-1-2.2-2.4S24 6 25.2 6c1.2 0 2.2 1 2.2 2.5 0 1.4-1 2.4-2.2 2.4zM36 5.4a3 3 0 00-2.1-1 4 4 0 000 8c1 0 1.7-.4 2-.9v.6c0 1.5-.7 2.3-2 2.3-1 0-1.7-.8-2-1.4l-1.5.6c.4 1 1.6 2.4 3.5 2.4 2 0 3.7-1.2 3.7-4.1V4.7H36v.7zm-2 5.5c-1.2 0-2.2-1-2.2-2.4s1-2.4 2.2-2.4c1.2 0 2 1 2 2.4.1 1.4-.8 2.4-2 2.4zM16.6 4.5c-2.2 0-4 1.6-4 4a4 4 0 004 4c2.2 0 4-1.7 4-4s-1.9-4-4-4zm0 6.4c-1.2 0-2.2-1-2.2-2.4s1-2.5 2.2-2.5 2.2 1 2.2 2.5c0 1.4-1 2.4-2.2 2.4zM6.2 5.7v1.7h4c0 1-.4 1.6-.8 2-.7.7-1.6 1.3-3.2 1.3-2.4 0-4.4-2-4.4-4.5s2-4.5 4.4-4.5a4 4 0 013 1.2l1.3-1.2A6 6 0 006.2 0C3 0 0 2.8 0 6.1s2.9 6.2 6.2 6.2c1.8 0 3.3-.6 4.3-1.7a5.5 5.5 0 001.5-4l-.1-1H6.2zM48.4 7c-.3-1-1.3-2.5-3.3-2.5-2 0-3.8 1.6-3.8 4a4 4 0 004 4 4 4 0 003.3-1.8l-1.4-1c-.4.7-1 1.2-2 1.2a2 2 0 01-1.8-1.2l5.2-2.3-.2-.4zm-5.3 1.3C43 6.8 44.3 6 45 6s1.3.4 1.5.9L43 8.3zm-4.4 3.9h1.8V.5h-1.8v11.7zM56.6.5h-4.2v11.7h1.8V7.8h2.4c1.9 0 3.8-1.5 3.8-3.7S58.5.5 56.6.5zm0 5.6h-2.4v-4h2.4a2 2 0 012.1 2c0 1-.8 2-2 2zm4.8 6H63V.6h-1.7v11.7zm6-7.6c-1.3 0-2.6.5-3.1 1.7l1.5.7c.4-.7 1-.9 1.6-.9 1 0 1.8.6 1.8 1.5v.1c-.3-.2-1-.4-1.8-.4-1.6 0-3.3.9-3.3 2.6 0 1.6 1.3 2.6 2.9 2.6 1.1 0 1.8-.5 2.2-1.2v1H71V7.6c0-2-1.5-3.2-3.5-3.2zm-.2 6.4c-.6 0-1.4-.3-1.4-1 0-1 1-1.3 1.9-1.3a3 3 0 011.6.4c-.2 1-1.1 1.9-2.1 1.9zM77 4.7l-2 5-2-5h-2l3.2 7-1.8 4h1.8l4.8-11h-2z"/></svg>